Simulation
nRows=19
nColumns=15
endheader
time  TH_x TH_y TH_z SC_y  SC_z  SC_x  AC_y  AC_z  AC_x  GH_y  GH_z  GH_yy  EL_x  PS_y
5.382082397003745  0.000000  0.000000  0.000000  -31.681975378446943  10.910264048764258  17.53927416023508  53.97332474180949  17.945733772576915  11.863705535267634  -1.3870075981984349  62.869478464937245  3.191992144470769  13.46105006917317  120.000000
5.422247191011236  0.000000  0.000000  0.000000  -31.648119049091424  10.798833158255166  17.56279244351565  53.995972565966724  17.866753999467296  11.587323791058477  -1.2138255227803652  62.93199454455064  2.890768224728361  13.482187022869365  120.000000
5.4624119850187265  0.000000  0.000000  0.000000  -31.495977174194547  10.669656935960509  17.436999493071227  54.01349867462792  17.771677553068592  11.231900175409166  -1.022960576811068  62.742999515205305  2.6750908516185716  13.42297692738557  120.000000
5.502576779026217  0.000000  0.000000  0.000000  -31.22680134988296  10.522355148149206  17.154630195301497  54.03234064324187  17.65660007145343  10.799614866826861  -0.8167134075115874  62.28613424467185  2.5348212232894984  13.299461325467618  120.000000
5.542741573033708  0.000000  0.000000  0.000000  -30.845600649728812  10.35518526377156  16.71127244622572  54.059447483529354  17.516648416106197  10.295835335101893  -0.5987018125224288  61.54808440064699  2.4571573893758094  13.133762307623112  120.000000
5.582906367041199  0.000000  0.000000  0.000000  -30.361524469526916  10.164938463252112  16.105833880649687  54.10085685829395  17.34620284984395  9.729302302767598  -0.37232274874769183  60.52076197179814  2.4293363539858546  12.950107078513597  120.000000
5.623071161048689  0.000000  0.000000  0.000000  -29.78805475230421  9.947068681868785  15.341006009181095  54.16035558826108  17.139442586011903  9.112076358841456  -0.1393845477331004  59.20333801557246  2.44137526877726  12.770738247969964  120.000000
5.66323595505618  0.000000  0.000000  0.000000  -29.14285569381205  9.69622026738995  14.423727571179157  54.238703628526515  16.8910213400719  8.459266528391124  0.10070690451565012  57.60366743176149  2.488271526431666  12.612544912959558  120.000000
5.70340074906367  0.000000  0.000000  0.000000  -28.446994854200177  9.407007063279725  13.365488429447964  54.33359826904782  16.596828799473396  7.788571678048243  0.3512247592239989  55.73871113911752  2.5711324859710314  12.485260748863919  120.000000
5.743565543071161  0.000000  0.000000  0.000000  -27.72357306137003  9.074962692236381  12.182365167869946  54.44034710138791  16.254677739442087  7.119678673755178  0.6178409014766386  53.63368547020468  2.697008954125012  12.391486865865192  120.000000
5.7837303370786515  0.000000  0.000000  0.000000  -26.996033480692077  8.697515356638961  10.894586944403297  54.553022547407295  15.864848029790812  6.4732126483620505  0.9078198364722516  51.320128374082095  2.8778731358087404  12.328040291566747  120.000000
5.823895131086142  0.000000  0.000000  0.000000  -26.286614207674337  8.274825359439177  9.52556567080141  54.66569469984758  15.430323672361707  5.8693341411953295  1.228685963309116  48.83327288695909  3.129146382021324  12.287869770040446  120.000000
5.864059925093633  0.000000  0.000000  0.000000  -25.615414347879184  7.810353479468155  8.100702503722356  54.77329257118237  14.956627738606178  5.32625442316764  1.586553406017004  46.20940662689997  3.4683584786712376  12.262016720042867  120.000000
5.904224719101124  0.000000  0.000000  0.000000  -24.999933203455146  7.311201550253612  6.646161774552665  54.871964309086565  14.451638752339525  4.858801307092606  1.9843347624880499  43.483794503426466  3.9140376936625945  12.241377044725892  120.000000
5.944389513108614  0.000000  0.000000  0.000000  -24.45446068746459  6.788132263790061  5.187977017340563  54.95939714848307  13.92519787756316  4.477549075800637  2.420508991591008  40.68921711899255  4.484852182129146  12.217918928187785  120.000000
5.984554307116105  0.000000  0.000000  0.000000  -23.989092347031264  6.254702733822531  3.751272845158732  55.035164992630335  13.38870395532351  4.188715800898863  2.8890279730806374  37.855111233751444  5.198509114996312  12.186048651271841  120.000000
6.024719101123596  0.000000  0.000000  0.000000  -23.609278921914015  5.726376518990825  2.3597873067427257  55.10088936755891  12.854536007004299  3.994512426558559  3.3791502566244955  35.00716895208485  6.071178893795024  12.143385284777624  120.000000
6.064883895131086  0.000000  0.000000  0.000000  -23.316095021494906  5.219660141710018  1.0354055257372383  55.1597889163813  12.33584902604181  3.8931487678688077  3.874974965243465  32.16771252090099  7.1174358939644495  12.090960225034655  120.000000
6.1050486891385765  0.000000  0.000000  0.000000  -23.106781233880465  4.751347616144122  -0.20222940711412007  55.21611747358589  11.846296573546146  3.8792086586901102  4.355615093466109  29.35636900017666  8.350208369853709  12.03356234395052  120.000000
